<svg width="509" height="255" viewBox="0 0 509 255" fill="none" xmlns="http://www.w3.org/2000/svg">
<g opacity="0.33">
<mask id="path-1-outside-1_712_2897" maskUnits="userSpaceOnUse" x="0" y="0" width="509" height="255" fill="black">
<rect fill="white" width="509" height="255"/>
<path d="M47.7832 1C53.847 1 59.4477 2.5022 64.5927 5.4992C69.7378 8.4962 73.773 12.5588 76.6983 17.687C79.6236 22.8152 81.0863 28.4244 81.0863 34.5294C81.0863 43.7942 77.8376 51.7048 71.3401 58.2464C64.8427 64.788 56.9854 68.0588 47.7832 68.0588H20.6541V115.485H1V1H47.7832ZM47.7832 48.2638C51.5758 48.2638 54.7951 46.9318 57.4485 44.2604C60.1019 41.589 61.4249 38.3478 61.4249 34.5294C61.4249 30.711 60.0945 27.4698 57.4485 24.7984C54.7951 22.127 51.5758 20.795 47.7832 20.795H20.6541V48.2638H47.7832Z"/>
<path d="M160.518 1H180.173V115.485H160.518V68.2216H112.919V115.485H93.2653V1H112.919V48.2638H160.518V1Z"/>
<path d="M220.708 8.6886C229.425 3.5678 238.929 1 249.219 1C259.509 1 269.013 3.5604 277.73 8.6886C286.447 13.8168 293.349 20.7654 298.442 29.5418C303.529 38.3182 306.079 47.8864 306.079 58.2464C306.079 68.6064 303.536 78.1746 298.442 86.951C293.349 95.7274 286.447 102.683 277.73 107.804C269.013 112.932 259.509 115.493 249.219 115.493C238.929 115.493 229.425 112.932 220.708 107.804C211.991 102.683 205.082 95.7274 199.996 86.951C194.902 78.1746 192.359 68.6064 192.359 58.2464C192.359 47.8864 194.902 38.3182 199.996 29.5418C205.082 20.7654 211.991 13.8168 220.708 8.6886ZM222.898 84.7384C230.153 92.0422 238.922 95.6978 249.212 95.6978C259.502 95.6978 268.27 92.0496 275.525 84.7384C282.779 77.4346 286.41 68.6064 286.41 58.2464C286.41 47.8864 282.779 39.0582 275.525 31.7544C268.27 24.4506 259.494 20.795 249.212 20.795C238.929 20.795 230.153 24.4506 222.898 31.7544C215.644 39.0582 212.013 47.8938 212.013 58.2464C212.013 68.599 215.637 77.4346 222.898 84.7384Z"/>
<path d="M310.136 1H390.223V20.7876H360.007V115.485H340.352V20.7876H310.136V1Z"/>
<path d="M422.629 8.6886C431.346 3.5678 440.85 1 451.14 1C461.43 1 470.934 3.5604 479.651 8.6886C488.368 13.8168 495.27 20.7654 500.363 29.5418C505.45 38.3182 508 47.8864 508 58.2464C508 68.6064 505.457 78.1746 500.363 86.951C495.27 95.7274 488.368 102.683 479.651 107.804C470.934 112.932 461.43 115.493 451.14 115.493C440.85 115.493 431.346 112.932 422.629 107.804C413.912 102.683 407.003 95.7274 401.917 86.951C396.823 78.1746 394.28 68.6064 394.28 58.2464C394.28 47.8864 396.823 38.3182 401.917 29.5418C407.003 20.7654 413.912 13.8168 422.629 8.6886ZM424.819 84.7384C432.074 92.0422 440.842 95.6978 451.133 95.6978C461.423 95.6978 470.191 92.0496 477.446 84.7384C484.7 77.4346 488.331 68.6064 488.331 58.2464C488.331 47.8864 484.7 39.0582 477.446 31.7544C470.191 24.4506 461.415 20.795 451.133 20.795C440.85 20.795 432.074 24.4506 424.819 31.7544C417.565 39.0582 413.934 47.8938 413.934 58.2464C413.934 68.599 417.557 77.4346 424.819 84.7384Z"/>
<path d="M128.443 134.075C138.689 133.172 148.384 134.889 157.513 139.232C166.641 143.576 174.116 149.896 179.952 158.191C185.781 166.487 189.147 175.796 190.044 186.111C190.941 196.434 189.235 206.188 184.921 215.371C180.606 224.562 174.329 232.095 166.09 237.963C157.851 243.839 148.604 247.221 138.358 248.123L104.533 251.106L94.6254 137.057L128.45 134.075H128.443ZM136.638 228.41C146.884 227.507 155.278 223.104 161.827 215.193C168.369 207.283 171.22 198.166 170.375 187.843C169.53 177.52 165.179 169.04 157.321 162.394C149.457 155.757 140.402 152.885 130.156 153.788L115.919 155.046L122.401 229.668L136.638 228.41Z"/>
<path d="M285.183 172.355C284.624 178.763 282.441 184.483 278.641 189.508C274.834 194.54 270.057 198.218 264.309 200.556L278.178 253L257.304 251.165L244.405 202.584L222.075 200.615L217.981 247.702L198.401 245.977L208.309 131.929L254.915 136.036C264.081 136.842 271.622 140.794 277.532 147.876C283.441 154.965 285.991 163.127 285.19 172.355H285.183ZM250.821 183.122C254.599 183.455 257.922 182.411 260.795 179.977C263.669 177.55 265.272 174.464 265.595 170.712C265.918 166.968 264.882 163.615 262.471 160.67C260.06 157.725 256.973 156.082 253.196 155.749L226.169 153.366L223.788 180.739L250.814 183.122H250.821Z"/>
<path d="M320.581 225.65L301.353 242.936L393.023 248.242L375.817 228.846L320.581 225.65Z"/>
<path d="M317.222 162.801L300.06 143.458L294.79 235.743L314.047 218.427L317.222 162.801Z"/>
<path d="M379.617 159.457L398.83 142.178L307.233 136.872L324.433 156.26L379.617 159.457Z"/>
<path d="M386.151 166.686L382.976 222.253L400.138 241.597L405.408 149.37L386.151 166.686Z"/>
<path d="M461.665 133.29C467.678 132.491 473.425 133.246 478.916 135.54C484.406 137.841 488.934 141.334 492.492 146.033C496.056 150.732 498.232 156.104 499.026 162.158C500.224 171.348 498.033 179.607 492.44 186.948C486.847 194.288 479.482 198.566 470.361 199.772L443.467 203.339L449.619 250.366L430.134 252.948L415.294 139.447L461.68 133.298L461.665 133.29ZM467.795 180.154C471.551 179.659 474.572 177.912 476.858 174.915C479.144 171.918 480.041 168.529 479.541 164.748C479.048 160.966 477.306 157.925 474.33 155.623C471.353 153.322 467.986 152.427 464.231 152.922L437.337 156.489L440.901 183.729L467.795 180.162V180.154Z"/>
</mask>
<path d="M47.7832 1C53.847 1 59.4477 2.5022 64.5927 5.4992C69.7378 8.4962 73.773 12.5588 76.6983 17.687C79.6236 22.8152 81.0863 28.4244 81.0863 34.5294C81.0863 43.7942 77.8376 51.7048 71.3401 58.2464C64.8427 64.788 56.9854 68.0588 47.7832 68.0588H20.6541V115.485H1V1H47.7832ZM47.7832 48.2638C51.5758 48.2638 54.7951 46.9318 57.4485 44.2604C60.1019 41.589 61.4249 38.3478 61.4249 34.5294C61.4249 30.711 60.0945 27.4698 57.4485 24.7984C54.7951 22.127 51.5758 20.795 47.7832 20.795H20.6541V48.2638H47.7832Z" fill="white"/>
<path d="M160.518 1H180.173V115.485H160.518V68.2216H112.919V115.485H93.2653V1H112.919V48.2638H160.518V1Z" fill="white"/>
<path d="M220.708 8.6886C229.425 3.5678 238.929 1 249.219 1C259.509 1 269.013 3.5604 277.73 8.6886C286.447 13.8168 293.349 20.7654 298.442 29.5418C303.529 38.3182 306.079 47.8864 306.079 58.2464C306.079 68.6064 303.536 78.1746 298.442 86.951C293.349 95.7274 286.447 102.683 277.73 107.804C269.013 112.932 259.509 115.493 249.219 115.493C238.929 115.493 229.425 112.932 220.708 107.804C211.991 102.683 205.082 95.7274 199.996 86.951C194.902 78.1746 192.359 68.6064 192.359 58.2464C192.359 47.8864 194.902 38.3182 199.996 29.5418C205.082 20.7654 211.991 13.8168 220.708 8.6886ZM222.898 84.7384C230.153 92.0422 238.922 95.6978 249.212 95.6978C259.502 95.6978 268.27 92.0496 275.525 84.7384C282.779 77.4346 286.41 68.6064 286.41 58.2464C286.41 47.8864 282.779 39.0582 275.525 31.7544C268.27 24.4506 259.494 20.795 249.212 20.795C238.929 20.795 230.153 24.4506 222.898 31.7544C215.644 39.0582 212.013 47.8938 212.013 58.2464C212.013 68.599 215.637 77.4346 222.898 84.7384Z" fill="white"/>
<path d="M310.136 1H390.223V20.7876H360.007V115.485H340.352V20.7876H310.136V1Z" fill="white"/>
<path d="M422.629 8.6886C431.346 3.5678 440.85 1 451.14 1C461.43 1 470.934 3.5604 479.651 8.6886C488.368 13.8168 495.27 20.7654 500.363 29.5418C505.45 38.3182 508 47.8864 508 58.2464C508 68.6064 505.457 78.1746 500.363 86.951C495.27 95.7274 488.368 102.683 479.651 107.804C470.934 112.932 461.43 115.493 451.14 115.493C440.85 115.493 431.346 112.932 422.629 107.804C413.912 102.683 407.003 95.7274 401.917 86.951C396.823 78.1746 394.28 68.6064 394.28 58.2464C394.28 47.8864 396.823 38.3182 401.917 29.5418C407.003 20.7654 413.912 13.8168 422.629 8.6886ZM424.819 84.7384C432.074 92.0422 440.842 95.6978 451.133 95.6978C461.423 95.6978 470.191 92.0496 477.446 84.7384C484.7 77.4346 488.331 68.6064 488.331 58.2464C488.331 47.8864 484.7 39.0582 477.446 31.7544C470.191 24.4506 461.415 20.795 451.133 20.795C440.85 20.795 432.074 24.4506 424.819 31.7544C417.565 39.0582 413.934 47.8938 413.934 58.2464C413.934 68.599 417.557 77.4346 424.819 84.7384Z" fill="white"/>
<path d="M128.443 134.075C138.689 133.172 148.384 134.889 157.513 139.232C166.641 143.576 174.116 149.896 179.952 158.191C185.781 166.487 189.147 175.796 190.044 186.111C190.941 196.434 189.235 206.188 184.921 215.371C180.606 224.562 174.329 232.095 166.09 237.963C157.851 243.839 148.604 247.221 138.358 248.123L104.533 251.106L94.6254 137.057L128.45 134.075H128.443ZM136.638 228.41C146.884 227.507 155.278 223.104 161.827 215.193C168.369 207.283 171.22 198.166 170.375 187.843C169.53 177.52 165.179 169.04 157.321 162.394C149.457 155.757 140.402 152.885 130.156 153.788L115.919 155.046L122.401 229.668L136.638 228.41Z" fill="white"/>
<path d="M285.183 172.355C284.624 178.763 282.441 184.483 278.641 189.508C274.834 194.54 270.057 198.218 264.309 200.556L278.178 253L257.304 251.165L244.405 202.584L222.075 200.615L217.981 247.702L198.401 245.977L208.309 131.929L254.915 136.036C264.081 136.842 271.622 140.794 277.532 147.876C283.441 154.965 285.991 163.127 285.19 172.355H285.183ZM250.821 183.122C254.599 183.455 257.922 182.411 260.795 179.977C263.669 177.55 265.272 174.464 265.595 170.712C265.918 166.968 264.882 163.615 262.471 160.67C260.06 157.725 256.973 156.082 253.196 155.749L226.169 153.366L223.788 180.739L250.814 183.122H250.821Z" fill="white"/>
<path d="M320.581 225.65L301.353 242.936L393.023 248.242L375.817 228.846L320.581 225.65Z" fill="white"/>
<path d="M317.222 162.801L300.06 143.458L294.79 235.743L314.047 218.427L317.222 162.801Z" fill="white"/>
<path d="M379.617 159.457L398.83 142.178L307.233 136.872L324.433 156.26L379.617 159.457Z" fill="white"/>
<path d="M386.151 166.686L382.976 222.253L400.138 241.597L405.408 149.37L386.151 166.686Z" fill="white"/>
<path d="M461.665 133.29C467.678 132.491 473.425 133.246 478.916 135.54C484.406 137.841 488.934 141.334 492.492 146.033C496.056 150.732 498.232 156.104 499.026 162.158C500.224 171.348 498.033 179.607 492.44 186.948C486.847 194.288 479.482 198.566 470.361 199.772L443.467 203.339L449.619 250.366L430.134 252.948L415.294 139.447L461.68 133.298L461.665 133.29ZM467.795 180.154C471.551 179.659 474.572 177.912 476.858 174.915C479.144 171.918 480.041 168.529 479.541 164.748C479.048 160.966 477.306 157.925 474.33 155.623C471.353 153.322 467.986 152.427 464.231 152.922L437.337 156.489L440.901 183.729L467.795 180.162V180.154Z" fill="white"/>
<path d="M47.7832 1C53.847 1 59.4477 2.5022 64.5927 5.4992C69.7378 8.4962 73.773 12.5588 76.6983 17.687C79.6236 22.8152 81.0863 28.4244 81.0863 34.5294C81.0863 43.7942 77.8376 51.7048 71.3401 58.2464C64.8427 64.788 56.9854 68.0588 47.7832 68.0588H20.6541V115.485H1V1H47.7832ZM47.7832 48.2638C51.5758 48.2638 54.7951 46.9318 57.4485 44.2604C60.1019 41.589 61.4249 38.3478 61.4249 34.5294C61.4249 30.711 60.0945 27.4698 57.4485 24.7984C54.7951 22.127 51.5758 20.795 47.7832 20.795H20.6541V48.2638H47.7832Z" stroke="black" stroke-width="2" mask="url(#path-1-outside-1_712_2897)"/>
<path d="M160.518 1H180.173V115.485H160.518V68.2216H112.919V115.485H93.2653V1H112.919V48.2638H160.518V1Z" stroke="black" stroke-width="2" mask="url(#path-1-outside-1_712_2897)"/>
<path d="M220.708 8.6886C229.425 3.5678 238.929 1 249.219 1C259.509 1 269.013 3.5604 277.73 8.6886C286.447 13.8168 293.349 20.7654 298.442 29.5418C303.529 38.3182 306.079 47.8864 306.079 58.2464C306.079 68.6064 303.536 78.1746 298.442 86.951C293.349 95.7274 286.447 102.683 277.73 107.804C269.013 112.932 259.509 115.493 249.219 115.493C238.929 115.493 229.425 112.932 220.708 107.804C211.991 102.683 205.082 95.7274 199.996 86.951C194.902 78.1746 192.359 68.6064 192.359 58.2464C192.359 47.8864 194.902 38.3182 199.996 29.5418C205.082 20.7654 211.991 13.8168 220.708 8.6886ZM222.898 84.7384C230.153 92.0422 238.922 95.6978 249.212 95.6978C259.502 95.6978 268.27 92.0496 275.525 84.7384C282.779 77.4346 286.41 68.6064 286.41 58.2464C286.41 47.8864 282.779 39.0582 275.525 31.7544C268.27 24.4506 259.494 20.795 249.212 20.795C238.929 20.795 230.153 24.4506 222.898 31.7544C215.644 39.0582 212.013 47.8938 212.013 58.2464C212.013 68.599 215.637 77.4346 222.898 84.7384Z" stroke="black" stroke-width="2" mask="url(#path-1-outside-1_712_2897)"/>
<path d="M310.136 1H390.223V20.7876H360.007V115.485H340.352V20.7876H310.136V1Z" stroke="black" stroke-width="2" mask="url(#path-1-outside-1_712_2897)"/>
<path d="M422.629 8.6886C431.346 3.5678 440.85 1 451.14 1C461.43 1 470.934 3.5604 479.651 8.6886C488.368 13.8168 495.27 20.7654 500.363 29.5418C505.45 38.3182 508 47.8864 508 58.2464C508 68.6064 505.457 78.1746 500.363 86.951C495.27 95.7274 488.368 102.683 479.651 107.804C470.934 112.932 461.43 115.493 451.14 115.493C440.85 115.493 431.346 112.932 422.629 107.804C413.912 102.683 407.003 95.7274 401.917 86.951C396.823 78.1746 394.28 68.6064 394.28 58.2464C394.28 47.8864 396.823 38.3182 401.917 29.5418C407.003 20.7654 413.912 13.8168 422.629 8.6886ZM424.819 84.7384C432.074 92.0422 440.842 95.6978 451.133 95.6978C461.423 95.6978 470.191 92.0496 477.446 84.7384C484.7 77.4346 488.331 68.6064 488.331 58.2464C488.331 47.8864 484.7 39.0582 477.446 31.7544C470.191 24.4506 461.415 20.795 451.133 20.795C440.85 20.795 432.074 24.4506 424.819 31.7544C417.565 39.0582 413.934 47.8938 413.934 58.2464C413.934 68.599 417.557 77.4346 424.819 84.7384Z" stroke="black" stroke-width="2" mask="url(#path-1-outside-1_712_2897)"/>
<path d="M128.443 134.075C138.689 133.172 148.384 134.889 157.513 139.232C166.641 143.576 174.116 149.896 179.952 158.191C185.781 166.487 189.147 175.796 190.044 186.111C190.941 196.434 189.235 206.188 184.921 215.371C180.606 224.562 174.329 232.095 166.09 237.963C157.851 243.839 148.604 247.221 138.358 248.123L104.533 251.106L94.6254 137.057L128.45 134.075H128.443ZM136.638 228.41C146.884 227.507 155.278 223.104 161.827 215.193C168.369 207.283 171.22 198.166 170.375 187.843C169.53 177.52 165.179 169.04 157.321 162.394C149.457 155.757 140.402 152.885 130.156 153.788L115.919 155.046L122.401 229.668L136.638 228.41Z" stroke="black" stroke-width="2" mask="url(#path-1-outside-1_712_2897)"/>
<path d="M285.183 172.355C284.624 178.763 282.441 184.483 278.641 189.508C274.834 194.54 270.057 198.218 264.309 200.556L278.178 253L257.304 251.165L244.405 202.584L222.075 200.615L217.981 247.702L198.401 245.977L208.309 131.929L254.915 136.036C264.081 136.842 271.622 140.794 277.532 147.876C283.441 154.965 285.991 163.127 285.19 172.355H285.183ZM250.821 183.122C254.599 183.455 257.922 182.411 260.795 179.977C263.669 177.55 265.272 174.464 265.595 170.712C265.918 166.968 264.882 163.615 262.471 160.67C260.06 157.725 256.973 156.082 253.196 155.749L226.169 153.366L223.788 180.739L250.814 183.122H250.821Z" stroke="black" stroke-width="2" mask="url(#path-1-outside-1_712_2897)"/>
<path d="M320.581 225.65L301.353 242.936L393.023 248.242L375.817 228.846L320.581 225.65Z" stroke="black" stroke-width="2" mask="url(#path-1-outside-1_712_2897)"/>
<path d="M317.222 162.801L300.06 143.458L294.79 235.743L314.047 218.427L317.222 162.801Z" stroke="black" stroke-width="2" mask="url(#path-1-outside-1_712_2897)"/>
<path d="M379.617 159.457L398.83 142.178L307.233 136.872L324.433 156.26L379.617 159.457Z" stroke="black" stroke-width="2" mask="url(#path-1-outside-1_712_2897)"/>
<path d="M386.151 166.686L382.976 222.253L400.138 241.597L405.408 149.37L386.151 166.686Z" stroke="black" stroke-width="2" mask="url(#path-1-outside-1_712_2897)"/>
<path d="M461.665 133.29C467.678 132.491 473.425 133.246 478.916 135.54C484.406 137.841 488.934 141.334 492.492 146.033C496.056 150.732 498.232 156.104 499.026 162.158C500.224 171.348 498.033 179.607 492.44 186.948C486.847 194.288 479.482 198.566 470.361 199.772L443.467 203.339L449.619 250.366L430.134 252.948L415.294 139.447L461.68 133.298L461.665 133.29ZM467.795 180.154C471.551 179.659 474.572 177.912 476.858 174.915C479.144 171.918 480.041 168.529 479.541 164.748C479.048 160.966 477.306 157.925 474.33 155.623C471.353 153.322 467.986 152.427 464.231 152.922L437.337 156.489L440.901 183.729L467.795 180.162V180.154Z" stroke="black" stroke-width="2" mask="url(#path-1-outside-1_712_2897)"/>
</g>
</svg>
